<svg width="14" height="11" viewBox="0 0 14 11" fill="none" xmlns="http://www.w3.org/2000/svg">
<path d="M6.3 3.4375C6.3 4.57875 5.362 5.5 4.2 5.5C3.038 5.5 2.1 4.57875 2.1 3.4375C2.1 2.29625 3.038 1.375 4.2 1.375C5.362 1.375 6.3 2.29625 6.3 3.4375ZM8.4 11H0V9.625C0 8.10562 1.883 6.875 4.2 6.875C6.517 6.875 8.4 8.10562 8.4 9.625M3.5 3.4375C3.5 3.81563 3.815 4.125 4.2 4.125C4.585 4.125 4.9 3.81563 4.9 3.4375C4.9 3.05937 4.585 2.75 4.2 2.75C3.815 2.75 3.5 3.05937 3.5 3.4375ZM1.4 9.625H7C7 8.86875 5.747 8.25 4.2 8.25C2.653 8.25 1.4 8.86875 1.4 9.625ZM14 5.5V6.875H7.7V5.5M14 2.75V4.125H7.7V2.75M14 0V1.375H7.7V0H14Z" fill="#0F66EF"/>
</svg>
