<svg width="30" height="36" viewBox="0 0 30 36" fill="none" xmlns="http://www.w3.org/2000/svg">
<path d="M28.5283 7.63638L21.5283 0.954559V4.77274C14.8294 4.77274 13.2556 9.57609 13.2556 14.3182C15.189 11.8427 16.8988 10.5 21.5283 10.5V14.3182L28.5283 7.63638Z" stroke="#0F66EF" stroke-width="1.90909" stroke-linejoin="round"/>
<path d="M18.3465 19.4091V15.5909C18.3465 15.2534 18.2124 14.9297 17.9737 14.691C17.735 14.4523 17.4113 14.3182 17.0738 14.3182H4.34648C3.67138 14.3182 3.02394 14.5864 2.54657 15.0638C2.06921 15.5411 1.80103 16.1886 1.80103 16.8637M1.80103 16.8637C1.80103 17.5388 2.06921 18.1862 2.54657 18.6636C3.02394 19.1409 3.67138 19.4091 4.34648 19.4091H19.6192C19.9568 19.4091 20.2805 19.5432 20.5192 19.7819C20.7578 20.0206 20.8919 20.3443 20.8919 20.6818V24.5M1.80103 16.8637V32.1364C1.80103 32.8115 2.06921 33.4589 2.54657 33.9363C3.02394 34.4137 3.67138 34.6818 4.34648 34.6818H19.6192C19.9568 34.6818 20.2805 34.5478 20.5192 34.3091C20.7578 34.0704 20.8919 33.7467 20.8919 33.4091V29.5909" stroke="#0F66EF" stroke-width="1.90909" stroke-linecap="round" stroke-linejoin="round"/>
<path d="M20.892 21.9546V27.0455H15.8011C15.126 27.0455 14.4785 26.7773 14.0012 26.2999C13.5238 25.8226 13.2556 25.1751 13.2556 24.5C13.2556 23.8249 13.5238 23.1775 14.0012 22.7001C14.4785 22.2227 15.126 21.9546 15.8011 21.9546H20.892Z" stroke="#0F66EF" stroke-width="1.90909" stroke-linecap="round" stroke-linejoin="round"/>
</svg>
