<svg width="21" height="20" viewBox="0 0 21 20" fill="none" xmlns="http://www.w3.org/2000/svg">
<path d="M11.225 9.825V6.225C11.225 5.94167 11.129 5.70433 10.937 5.513C10.745 5.32167 10.5077 5.22567 10.225 5.225C9.94233 5.22433 9.705 5.32033 9.513 5.513C9.321 5.70567 9.225 5.943 9.225 6.225V10.2C9.225 10.3333 9.25 10.4627 9.3 10.588C9.35 10.7133 9.425 10.8257 9.525 10.925L12.325 13.725C12.5083 13.9083 12.7417 14 13.025 14C13.3083 14 13.5417 13.9083 13.725 13.725C13.9083 13.5417 14 13.3083 14 13.025C14 12.7417 13.9083 12.5083 13.725 12.325L11.225 9.825ZM10.225 19.225C8.975 19.225 7.80433 18.9877 6.713 18.513C5.62167 18.0383 4.67167 17.3967 3.863 16.588C3.05433 15.7793 2.41267 14.8293 1.938 13.738C1.46333 12.6467 1.22567 11.4757 1.225 10.225C1.22433 8.97433 1.462 7.80367 1.938 6.713C2.414 5.62233 3.05533 4.67233 3.862 3.863C4.66867 3.05367 5.61867 2.412 6.712 1.938C7.80533 1.464 8.97633 1.22633 10.225 1.225C11.4737 1.22367 12.6447 1.46133 13.738 1.938C14.8313 2.41467 15.7813 3.05633 16.588 3.863C17.3947 4.66967 18.0363 5.61967 18.513 6.713C18.9897 7.80633 19.227 8.977 19.225 10.225C19.223 11.473 18.9857 12.644 18.513 13.738C18.0403 14.832 17.3987 15.782 16.588 16.588C15.7773 17.394 14.8273 18.0357 13.738 18.513C12.6487 18.9903 11.4777 19.2277 10.225 19.225ZM0.275 4.525C0.0916666 4.34167 0 4.10833 0 3.825C0 3.54167 0.0916666 3.30833 0.275 3.125L3.125 0.275C3.30833 0.0916665 3.54167 0 3.825 0C4.10833 0 4.34167 0.0916665 4.525 0.275C4.70833 0.458333 4.8 0.691667 4.8 0.975C4.8 1.25833 4.70833 1.49167 4.525 1.675L1.675 4.525C1.49167 4.70833 1.25833 4.8 0.975 4.8C0.691667 4.8 0.458333 4.70833 0.275 4.525ZM20.175 4.525C19.9917 4.70833 19.7583 4.8 19.475 4.8C19.1917 4.8 18.9583 4.70833 18.775 4.525L15.925 1.675C15.7417 1.49167 15.65 1.25833 15.65 0.975C15.65 0.691667 15.7417 0.458333 15.925 0.275C16.1083 0.0916665 16.3417 0 16.625 0C16.9083 0 17.1417 0.0916665 17.325 0.275L20.175 3.125C20.3583 3.30833 20.45 3.54167 20.45 3.825C20.45 4.10833 20.3583 4.34167 20.175 4.525ZM10.225 17.225C12.175 17.225 13.8293 16.546 15.188 15.188C16.5467 13.83 17.2257 12.1757 17.225 10.225C17.2243 8.27433 16.5453 6.62033 15.188 5.263C13.8307 3.90567 12.1763 3.22633 10.225 3.225C8.27367 3.22367 6.61967 3.903 5.263 5.263C3.90633 6.623 3.227 8.277 3.225 10.225C3.223 12.173 3.90233 13.8273 5.263 15.188C6.62367 16.5487 8.27767 17.2277 10.225 17.225Z" fill="#A8A8A8"/>
</svg>
