<svg width="34" height="24" viewBox="0 0 34 24" fill="none" xmlns="http://www.w3.org/2000/svg">
<path fill-rule="evenodd" clip-rule="evenodd" d="M5.40833 18.3333V21.6667C5.40833 22.1087 5.58392 22.5326 5.89648 22.8452C6.20904 23.1577 6.63296 23.3333 7.07499 23.3333H32.075C32.517 23.3333 32.9409 23.1577 33.2535 22.8452C33.5661 22.5326 33.7417 22.1087 33.7417 21.6667V8.33333C33.7417 7.89131 33.5661 7.46738 33.2535 7.15482C32.9409 6.84226 32.517 6.66667 32.075 6.66667H30V9.72417C30.2287 10.0645 30.5375 10.3434 30.8994 10.5362C31.2612 10.7291 31.665 10.83 32.075 10.83V19.1667C31.4144 19.1704 30.7822 19.4355 30.3164 19.9039C29.8506 20.3723 29.5891 21.0061 29.5892 21.6667H9.57083C9.5625 21.0097 9.2959 20.3824 8.82868 19.9205C8.36145 19.4586 7.73117 19.1992 7.07416 19.1983V18.3333H5.40833ZM14.1667 10C14.6087 10 15.0326 9.82441 15.3452 9.51184C15.6577 9.19928 15.8333 8.77536 15.8333 8.33333C15.8333 7.89131 15.6577 7.46738 15.3452 7.15482C15.0326 6.84226 14.6087 6.66667 14.1667 6.66667C13.7246 6.66667 13.3007 6.84226 12.9881 7.15482C12.6756 7.46738 12.5 7.89131 12.5 8.33333C12.5 8.77536 12.6756 9.19928 12.9881 9.51184C13.3007 9.82441 13.7246 10 14.1667 10ZM14.1667 11.6667C15.0507 11.6667 15.8986 11.3155 16.5237 10.6904C17.1488 10.0652 17.5 9.21739 17.5 8.33333C17.5 7.44928 17.1488 6.60143 16.5237 5.97631C15.8986 5.35119 15.0507 5 14.1667 5C13.2826 5 12.4348 5.35119 11.8096 5.97631C11.1845 6.60143 10.8333 7.44928 10.8333 8.33333C10.8333 9.21739 11.1845 10.0652 11.8096 10.6904C12.4348 11.3155 13.2826 11.6667 14.1667 11.6667Z" fill="#8B5CF6"/>
<path fill-rule="evenodd" clip-rule="evenodd" d="M1.66667 0C1.22464 0 0.800716 0.175595 0.488155 0.488156C0.175595 0.800716 0 1.22464 0 1.66667V15C0 15.442 0.175595 15.8659 0.488155 16.1785C0.800716 16.4911 1.22464 16.6667 1.66667 16.6667H26.6667C27.1087 16.6667 27.5326 16.4911 27.8452 16.1785C28.1577 15.8659 28.3333 15.442 28.3333 15V1.66667C28.3333 1.22464 28.1577 0.800716 27.8452 0.488156C27.5326 0.175595 27.1087 0 26.6667 0H1.66667ZM4.165 1.66667H24.1675C24.1684 2.32899 24.4321 2.96389 24.9006 3.43198C25.3692 3.90008 26.0043 4.16311 26.6667 4.16333V12.5C26.0061 12.5037 25.3738 12.7688 24.9081 13.2372C24.4423 13.7057 24.1808 14.3394 24.1808 15H4.16333C4.15501 14.343 3.88841 13.7158 3.42118 13.2538C2.95396 12.7919 2.32368 12.5325 1.66667 12.5317V4.16667C2.32942 4.16622 2.96488 3.90264 3.43336 3.43384C3.90184 2.96505 4.165 2.32942 4.165 1.66667Z" fill="#8B5CF6"/>
</svg>
