<svg width="19" height="20" viewBox="0 0 19 20" fill="none" xmlns="http://www.w3.org/2000/svg">
<path d="M4.425 6.55001L8.15 0.475009C8.25 0.308342 8.375 0.187342 8.525 0.112009C8.675 0.0366754 8.83333 -0.000657895 9 8.77193e-06C9.16667 0.000675439 9.325 0.0383423 9.475 0.113009C9.625 0.187676 9.75 0.308342 9.85 0.475009L13.575 6.55001C13.675 6.71668 13.725 6.89168 13.725 7.07501C13.725 7.25834 13.6833 7.42501 13.6 7.57501C13.5167 7.72501 13.4 7.84601 13.25 7.93801C13.1 8.03001 12.925 8.07568 12.725 8.07501H5.275C5.075 8.07501 4.9 8.02934 4.75 7.93801C4.6 7.84668 4.48333 7.72568 4.4 7.57501C4.31667 7.42434 4.275 7.25768 4.275 7.07501C4.275 6.89234 4.325 6.71734 4.425 6.55001ZM14.5 19.075C13.25 19.075 12.1877 18.6377 11.313 17.763C10.4383 16.8883 10.0007 15.8257 10 14.575C9.99933 13.3243 10.437 12.262 11.313 11.388C12.189 10.514 13.2513 10.0763 14.5 10.075C15.7487 10.0737 16.8113 10.5113 17.688 11.388C18.5647 12.2647 19.002 13.327 19 14.575C18.998 15.823 18.5607 16.8857 17.688 17.763C16.8153 18.6403 15.7527 19.0777 14.5 19.075ZM0 17.575V11.575C0 11.2917 0.0960001 11.0543 0.288 10.863C0.48 10.6717 0.717333 10.5757 1 10.575H7C7.28333 10.575 7.521 10.671 7.713 10.863C7.905 11.055 8.00067 11.2923 8 11.575V17.575C8 17.8583 7.904 18.096 7.712 18.288C7.52 18.48 7.28267 18.5757 7 18.575H1C0.716667 18.575 0.479333 18.479 0.288 18.287C0.0966668 18.095 0.000666667 17.8577 0 17.575ZM14.5 17.075C15.2 17.075 15.7917 16.8333 16.275 16.35C16.7583 15.8667 17 15.275 17 14.575C17 13.875 16.7583 13.2833 16.275 12.8C15.7917 12.3167 15.2 12.075 14.5 12.075C13.8 12.075 13.2083 12.3167 12.725 12.8C12.2417 13.2833 12 13.875 12 14.575C12 15.275 12.2417 15.8667 12.725 16.35C13.2083 16.8333 13.8 17.075 14.5 17.075ZM2 16.575H6V12.575H2V16.575ZM7.05 6.07501H10.95L9 2.92501L7.05 6.07501Z" fill="#A8A8A8"/>
</svg>
