<svg width="22" height="22" viewBox="0 0 22 22" fill="none" xmlns="http://www.w3.org/2000/svg">
<path d="M1.90898 9.75C1.0155 11.1168 0.619624 12.7494 0.787849 14.3736C0.956073 15.9978 1.67815 17.5146 2.83277 18.6692C3.9874 19.8238 5.50422 20.5459 7.12842 20.7141C8.75261 20.8824 10.3852 20.4865 11.752 19.593M12.752 16.75C14.8737 16.75 16.9085 15.9071 18.4088 14.4069C19.9091 12.9066 20.752 10.8717 20.752 8.75C20.752 6.62827 19.9091 4.59344 18.4088 3.09315C16.9085 1.59285 14.8737 0.75 12.752 0.75C10.6302 0.75 8.59541 1.59285 7.09512 3.09315C5.59483 4.59344 4.75198 6.62827 4.75198 8.75C4.75198 10.8717 5.59483 12.9066 7.09512 14.4069C8.59541 15.9071 10.6302 16.75 12.752 16.75Z" stroke="#0F66EF" stroke-width="1.5" stroke-linecap="round"/>
<path d="M14.5229 6.955C14.3069 6.043 13.2069 5.22 11.8859 5.835C10.5649 6.452 10.3549 8.433 12.3529 8.643C13.2559 8.738 13.8449 8.533 14.3829 9.114C14.9229 9.695 15.0229 11.312 13.6449 11.748C12.2669 12.184 10.9029 11.503 10.7539 10.536M12.7379 4.754V5.624M12.7379 11.882V12.754" stroke="#0F66EF" stroke-width="1.5" stroke-linecap="round" stroke-linejoin="round"/>
</svg>
