<svg width="16" height="16" viewBox="0 0 16 16" fill="none" xmlns="http://www.w3.org/2000/svg">
<path d="M13.4409 10.8719C13.2347 10.6812 12.9315 10.6344 12.6722 10.5906C12.3128 10.5312 12.1753 10.4656 11.9659 10.2781C11.519 9.88125 11.519 9.30625 11.9659 8.90938L12.9128 8.06875C14.3628 6.7875 14.3628 4.6875 12.9128 3.40625C11.844 2.46562 10.4097 2 8.91904 2C7.17842 2 5.35967 2.63437 3.95654 3.87812C1.34717 6.18438 1.34717 9.9625 3.95654 12.2688C5.25342 13.4156 7.00342 13.9875 8.73467 14H8.78779C10.519 14 12.2253 13.4406 13.4378 12.3625C13.8878 11.9656 13.8125 11.2187 13.4409 10.8719Z" stroke="#0F66EF" stroke-width="1.2" stroke-miterlimit="10"/>
<path d="M4.5 7.5C5.05228 7.5 5.5 7.05228 5.5 6.5C5.5 5.94772 5.05228 5.5 4.5 5.5C3.94772 5.5 3.5 5.94772 3.5 6.5C3.5 7.05228 3.94772 7.5 4.5 7.5Z" fill="#0F66EF"/>
<path d="M4.75 10.7188C5.30228 10.7188 5.75 10.271 5.75 9.71875C5.75 9.16647 5.30228 8.71875 4.75 8.71875C4.19772 8.71875 3.75 9.16647 3.75 9.71875C3.75 10.271 4.19772 10.7188 4.75 10.7188Z" fill="#0F66EF"/>
<path d="M7 5.5C7.55228 5.5 8 5.05228 8 4.5C8 3.94772 7.55228 3.5 7 3.5C6.44772 3.5 6 3.94772 6 4.5C6 5.05228 6.44772 5.5 7 5.5Z" fill="#0F66EF"/>
<path d="M8 12.9688C8.82843 12.9688 9.5 12.2972 9.5 11.4688C9.5 10.6403 8.82843 9.96875 8 9.96875C7.17157 9.96875 6.5 10.6403 6.5 11.4688C6.5 12.2972 7.17157 12.9688 8 12.9688Z" fill="#0F66EF"/>
<path d="M10.25 5.5C10.8023 5.5 11.25 5.05228 11.25 4.5C11.25 3.94772 10.8023 3.5 10.25 3.5C9.69772 3.5 9.25 3.94772 9.25 4.5C9.25 5.05228 9.69772 5.5 10.25 5.5Z" fill="#0F66EF"/>
</svg>
