<svg width="17" height="17" viewBox="0 0 17 17" fill="none" xmlns="http://www.w3.org/2000/svg">
<path d="M14.281 11.5514C14.0619 11.3488 13.7398 11.299 13.4642 11.2525C13.0824 11.1895 12.9363 11.1197 12.7138 10.9205C12.239 10.4988 12.239 9.88789 12.7138 9.46621L13.7199 8.57305C15.2605 7.21172 15.2605 4.98047 13.7199 3.61914C12.5843 2.61973 11.0603 2.125 9.47651 2.125C7.6271 2.125 5.69468 2.79902 4.20386 4.12051C1.4314 6.5709 1.4314 10.5852 4.20386 13.0355C5.58179 14.2541 7.44116 14.8617 9.28062 14.875H9.33706C11.1765 14.875 12.9894 14.2807 14.2777 13.1352C14.7558 12.7135 14.6758 11.9199 14.281 11.5514Z" stroke="#0F66EF" stroke-width="1.5" stroke-miterlimit="10"/>
<path d="M4.78125 7.96875C5.36805 7.96875 5.84375 7.49305 5.84375 6.90625C5.84375 6.31945 5.36805 5.84375 4.78125 5.84375C4.19445 5.84375 3.71875 6.31945 3.71875 6.90625C3.71875 7.49305 4.19445 7.96875 4.78125 7.96875Z" fill="#0F66EF"/>
<path d="M5.04688 11.3887C5.63368 11.3887 6.10938 10.913 6.10938 10.3262C6.10938 9.73937 5.63368 9.26367 5.04688 9.26367C4.46007 9.26367 3.98438 9.73937 3.98438 10.3262C3.98438 10.913 4.46007 11.3887 5.04688 11.3887Z" fill="#0F66EF"/>
<path d="M7.4375 5.84375C8.0243 5.84375 8.5 5.36805 8.5 4.78125C8.5 4.19445 8.0243 3.71875 7.4375 3.71875C6.8507 3.71875 6.375 4.19445 6.375 4.78125C6.375 5.36805 6.8507 5.84375 7.4375 5.84375Z" fill="#0F66EF"/>
<path d="M8.5 13.7793C9.3802 13.7793 10.0938 13.0658 10.0938 12.1855C10.0938 11.3053 9.3802 10.5918 8.5 10.5918C7.6198 10.5918 6.90625 11.3053 6.90625 12.1855C6.90625 13.0658 7.6198 13.7793 8.5 13.7793Z" fill="#0F66EF"/>
<path d="M10.8906 5.84375C11.4774 5.84375 11.9531 5.36805 11.9531 4.78125C11.9531 4.19445 11.4774 3.71875 10.8906 3.71875C10.3038 3.71875 9.82812 4.19445 9.82812 4.78125C9.82812 5.36805 10.3038 5.84375 10.8906 5.84375Z" fill="#0F66EF"/>
</svg>
