<svg width="15" height="16" viewBox="0 0 15 16" fill="none" xmlns="http://www.w3.org/2000/svg">
<path d="M2.8125 16C2.29688 16 1.85563 15.8261 1.48875 15.4782C1.12188 15.1304 0.938128 14.7117 0.937503 14.2222V2.66667C0.671878 2.66667 0.449378 2.58133 0.270003 2.41067C0.0906283 2.24 0.000628232 2.02904 3.23275e-06 1.77778C-0.000621767 1.52652 0.0893783 1.31556 0.270003 1.14489C0.450628 0.974222 0.673128 0.888889 0.937503 0.888889H4.6875C4.6875 0.637037 4.7775 0.426074 4.9575 0.256C5.1375 0.085926 5.36 0.000592593 5.625 0H9.375C9.64062 0 9.86344 0.0853334 10.0434 0.256C10.2234 0.426667 10.3131 0.63763 10.3125 0.888889H14.0625C14.3281 0.888889 14.5509 0.974222 14.7309 1.14489C14.9109 1.31556 15.0006 1.52652 15 1.77778C14.9994 2.02904 14.9094 2.2403 14.73 2.41156C14.5506 2.58281 14.3281 2.66785 14.0625 2.66667V14.2222C14.0625 14.7111 13.8791 15.1298 13.5122 15.4782C13.1453 15.8267 12.7037 16.0006 12.1875 16H2.8125ZM12.1875 2.66667H2.8125V14.2222H12.1875V2.66667ZM5.625 12.4444C5.89063 12.4444 6.11344 12.3591 6.29344 12.1884C6.47344 12.0178 6.56313 11.8068 6.5625 11.5556V5.33333C6.5625 5.08148 6.4725 4.87052 6.2925 4.70044C6.1125 4.53037 5.89 4.44504 5.625 4.44444C5.36 4.44385 5.1375 4.52918 4.9575 4.70044C4.7775 4.8717 4.6875 5.08267 4.6875 5.33333V11.5556C4.6875 11.8074 4.7775 12.0187 4.9575 12.1893C5.1375 12.36 5.36 12.445 5.625 12.4444ZM9.375 12.4444C9.64062 12.4444 9.86344 12.3591 10.0434 12.1884C10.2234 12.0178 10.3131 11.8068 10.3125 11.5556V5.33333C10.3125 5.08148 10.2225 4.87052 10.0425 4.70044C9.8625 4.53037 9.64 4.44504 9.375 4.44444C9.11 4.44385 8.8875 4.52918 8.7075 4.70044C8.5275 4.8717 8.4375 5.08267 8.4375 5.33333V11.5556C8.4375 11.8074 8.5275 12.0187 8.7075 12.1893C8.8875 12.36 9.11 12.445 9.375 12.4444Z" fill="#FF3700"/>
</svg>
