<svg width="34" height="34" viewBox="0 0 34 34" fill="none" xmlns="http://www.w3.org/2000/svg">
<path d="M31.782 27.1176H2.21797C1.58047 27.1176 1.0625 26.5997 1.0625 25.9622V8.04311C1.0625 7.40295 1.58047 6.88232 2.22328 6.88232H31.7794C32.4195 6.88232 32.9402 7.40029 32.9402 8.04311V25.9622C32.9388 26.2686 32.8162 26.5621 32.5992 26.7786C32.3823 26.9951 32.0885 27.1169 31.782 27.1176Z" fill="#2E7D32"/>
<path d="M31.8166 23.8823H2.18344C2.03623 23.8823 1.89047 23.8533 1.75447 23.797C1.61847 23.7407 1.4949 23.6581 1.39082 23.554C1.1806 23.3438 1.0625 23.0587 1.0625 22.7614V8.04311C1.0625 7.40295 1.58047 6.88232 2.22328 6.88232H31.7794C32.4195 6.88232 32.9402 7.40029 32.9402 8.04311V22.7614C32.939 23.0588 32.8202 23.3437 32.6097 23.5537C32.3991 23.7638 32.114 23.8819 31.8166 23.8823Z" fill="#66BB6A"/>
<path d="M10.54 17.3639C10.54 17.0372 10.4258 16.761 10.1974 16.5379C9.96891 16.3147 9.5811 16.1102 9.03657 15.9296C8.27954 15.6985 7.72704 15.3983 7.38173 15.0264C7.03376 14.6546 6.8611 14.1818 6.8611 13.6107C6.8611 13.0263 7.0311 12.5482 7.3711 12.1763C7.7111 11.8018 8.1786 11.5813 8.77094 11.5096V10.5879C8.77094 10.4524 8.88251 10.3408 9.01798 10.3408H9.31813C9.4536 10.3408 9.56516 10.4524 9.56516 10.5879V11.5149C10.1628 11.5972 10.6277 11.8469 10.9597 12.2666C11.2572 12.6438 11.4219 13.1432 11.4538 13.7674C11.4591 13.8896 11.3581 13.9905 11.2359 13.9905H10.6861C10.5692 13.9905 10.4789 13.8975 10.4683 13.7807C10.4391 13.3743 10.3222 13.0449 10.1177 12.7925C9.8786 12.4977 9.55719 12.3489 9.15344 12.3489C8.7311 12.3489 8.40704 12.4579 8.18391 12.6783C7.96079 12.8961 7.84657 13.2043 7.84657 13.5947C7.84657 13.9586 7.9661 14.2482 8.20251 14.4633C8.43891 14.6785 8.82938 14.875 9.37126 15.0504C9.91313 15.2257 10.3355 15.4196 10.6409 15.6321C10.9438 15.8446 11.1695 16.0889 11.313 16.3705C11.4564 16.6521 11.5281 16.9814 11.5281 17.3586C11.5281 17.9589 11.3475 18.4424 10.9863 18.8089C10.625 19.1755 10.1203 19.3933 9.46954 19.4597V20.23C9.46954 20.3655 9.35798 20.4771 9.22251 20.4771H8.92501C8.78954 20.4771 8.67797 20.3655 8.67797 20.23V19.4597C8.01657 19.3986 7.4986 19.1649 7.12407 18.7532C6.78938 18.3866 6.60344 17.9032 6.56891 17.3055C6.56094 17.1833 6.66454 17.0824 6.78673 17.0824H7.34188C7.45344 17.0824 7.54907 17.1647 7.55704 17.2763C7.58626 17.6774 7.71376 17.9935 7.93954 18.2246C8.19985 18.4902 8.56641 18.6257 9.04454 18.6257C9.50938 18.6257 9.87594 18.5141 10.1442 18.2883C10.4072 18.0572 10.54 17.7518 10.54 17.3639Z" fill="white"/>
<path d="M9.46689 19.6801L8.67798 19.4544L8.76829 11.5334V11.2651L9.56251 11.5122L9.46689 19.449V19.6801Z" fill="white"/>
<path opacity="0.5" d="M22.5197 20.2964C25.2336 20.2964 27.4337 18.0963 27.4337 15.3823C27.4337 12.6684 25.2336 10.4683 22.5197 10.4683C19.8057 10.4683 17.6056 12.6684 17.6056 15.3823C17.6056 18.0963 19.8057 20.2964 22.5197 20.2964Z" fill="#2E7D32"/>
<path d="M28.2758 8.79224C28.5042 10.2266 29.6411 11.3635 31.0755 11.5919V19.1729C29.6411 19.4013 28.5042 20.5382 28.2758 21.9725H5.68972C5.39753 20.6152 4.29253 19.5686 2.9219 19.3508V11.7699C4.41737 11.5335 5.58612 10.3116 5.7455 8.79224H28.2758ZM28.7646 8.26099H5.23019C5.23284 8.31942 5.2355 8.37786 5.2355 8.43896C5.2355 10.0088 3.96315 11.2811 2.39331 11.2811V19.8422C3.90206 19.8422 5.13722 21.019 5.23019 22.5065H28.7672C28.7672 20.9366 30.0396 19.6643 31.6094 19.6643V11.1032C30.0369 11.1032 28.7646 9.83083 28.7646 8.26099Z" fill="#2E7D32"/>
<path d="M14.0781 23.8823H19.9245V27.1176H14.0781V23.8823Z" fill="#FFC06C"/>
</svg>
