<svg width="13" height="7" viewBox="0 0 13 7" fill="none" xmlns="http://www.w3.org/2000/svg">
<path d="M6.3256 5.14225L11.2256 0.242248C11.3923 0.0755813 11.5896 -0.00508527 11.8176 0.000248062C12.0456 0.0055814 12.2427 0.0918036 12.4089 0.258915C12.5752 0.426026 12.6585 0.623359 12.6589 0.850915C12.6594 1.07847 12.576 1.27558 12.4089 1.44225L7.2756 6.55892C7.14227 6.69225 6.99227 6.79225 6.8256 6.85891C6.65893 6.92558 6.49227 6.95892 6.3256 6.95892C6.15893 6.95892 5.99227 6.92558 5.8256 6.85891C5.65893 6.79225 5.50893 6.69225 5.3756 6.55892L0.242268 1.42558C0.0756006 1.25891 -0.00506687 1.06447 0.000267029 0.842248C0.00559998 0.620026 0.0918226 0.425581 0.258934 0.258915C0.426044 0.0922481 0.623379 0.00891474 0.850934 0.00891474C1.07849 0.00891474 1.2756 0.0922481 1.44227 0.258915L6.3256 5.14225Z" fill="#0F66EF"/>
</svg>
