<svg width="40" height="40" viewBox="0 0 40 40" fill="none" xmlns="http://www.w3.org/2000/svg">
<g clip-path="url(#clip0_517_2478)">
<path d="M22.2256 8.96V3.85714C22.2256 3.09938 21.9246 2.37266 21.3888 1.83684C20.8529 1.30102 20.1262 1 19.3685 1H3.85702C3.09926 1 2.37253 1.30102 1.83672 1.83684C1.3009 2.37266 0.999878 3.09938 0.999878 3.85714V19.3686C0.999878 20.1263 1.3009 20.8531 1.83672 21.3889C2.37253 21.9247 3.09926 22.2257 3.85702 22.2257H8.95988M19.7742 16.9171H35.2856C35.2856 16.9171 38.1427 16.9171 38.1427 19.7743V35.2857C38.1427 35.2857 38.1427 38.1429 35.2856 38.1429H19.7742C19.7742 38.1429 16.917 38.1429 16.917 35.2857V19.7743C16.917 19.7743 16.917 16.9171 19.7742 16.9171Z" stroke="#BB00FF" stroke-width="2.5" stroke-linecap="round" stroke-linejoin="round"/>
<path d="M9.20293 10.0143C9.01349 10.0143 8.83181 9.93907 8.69786 9.80512C8.5639 9.67116 8.48865 9.48948 8.48865 9.30004C8.48865 9.1106 8.5639 8.92892 8.69786 8.79496C8.83181 8.66101 9.01349 8.58575 9.20293 8.58575M24.7258 31.9029C24.5364 31.9029 24.3547 31.8276 24.2207 31.6937C24.0868 31.5597 24.0115 31.3781 24.0115 31.1886C24.0115 30.9992 24.0868 30.8175 24.2207 30.6835C24.3547 30.5496 24.5364 30.4743 24.7258 30.4743C24.9152 30.4743 25.0969 30.5496 25.2309 30.6835C25.3648 30.8175 25.4401 30.9992 25.4401 31.1886C25.4401 31.3781 25.3648 31.5597 25.2309 31.6937C25.0969 31.8276 24.9152 31.9029 24.7258 31.9029Z" stroke="#BB00FF" stroke-linecap="round" stroke-linejoin="round"/>
<path d="M9.20007 10.0143C9.38951 10.0143 9.57119 9.93907 9.70515 9.80512C9.8391 9.67116 9.91436 9.48948 9.91436 9.30004C9.91436 9.1106 9.8391 8.92892 9.70515 8.79496C9.57119 8.66101 9.38951 8.58575 9.20007 8.58575M31.1972 26.0143C31.0078 26.0143 30.8261 25.9391 30.6921 25.8051C30.5582 25.6712 30.4829 25.4895 30.4829 25.3C30.4829 25.1106 30.5582 24.9289 30.6921 24.795C30.8261 24.661 31.0078 24.5858 31.1972 24.5858C31.3867 24.5858 31.5683 24.661 31.7023 24.795C31.8362 24.9289 31.9115 25.1106 31.9115 25.3C31.9115 25.4895 31.8362 25.6712 31.7023 25.8051C31.5683 25.9391 31.3867 26.0143 31.1972 26.0143Z" stroke="#BB00FF" stroke-linecap="round" stroke-linejoin="round"/>
</g>
<defs>
<clipPath id="clip0_517_2478">
<rect width="40" height="40" fill="white"/>
</clipPath>
</defs>
</svg>
