<svg width="20" height="14" viewBox="0 0 20 14" fill="none" xmlns="http://www.w3.org/2000/svg">
<path d="M10 0C12.526 0 14.681 1.15733 16.2902 2.42433C17.9096 3.69717 19.0789 5.16017 19.6527 5.95117C19.8792 6.26173 20 6.62668 20 7C20 7.37332 19.8792 7.73827 19.6527 8.04883C19.0789 8.83983 17.9096 10.3028 16.2902 11.5757C14.6797 12.8427 12.526 14 10 14C7.47397 14 5.319 12.8427 3.70978 11.5757C2.09037 10.3017 0.921072 8.83867 0.347264 8.04767C0.120835 7.73711 0 7.37215 0 6.99883C0 6.62552 0.120835 6.26056 0.347264 5.95C0.921072 5.16017 2.09037 3.69717 3.70978 2.42433C5.32027 1.15733 7.47397 0 10 0ZM1.9399 6.92067C1.92236 6.94401 1.91296 6.97167 1.91296 7C1.91296 7.02833 1.92236 7.05599 1.9399 7.07933C2.46398 7.805 3.52234 9.121 4.95686 10.2492C6.39903 11.3843 8.12173 12.25 10 12.25C11.8783 12.25 13.6022 11.3843 15.0431 10.2492C16.4764 9.121 17.5347 7.80383 18.0601 7.07933C18.0776 7.05599 18.087 7.02833 18.087 7C18.087 6.97167 18.0776 6.94401 18.0601 6.92067C17.5347 6.19617 16.4764 4.879 15.0431 3.75083C13.601 2.61567 11.8783 1.75 10 1.75C8.12173 1.75 6.39776 2.61567 4.95686 3.75083C3.52361 4.879 2.46525 6.19617 1.9399 6.92067ZM10 9.33333C9.66038 9.34036 9.32265 9.28524 9.00664 9.1712C8.69063 9.05716 8.4027 8.88651 8.15977 8.66926C7.91683 8.45201 7.72378 8.19255 7.59195 7.9061C7.46012 7.61965 7.39217 7.31199 7.39208 7.00118C7.392 6.69037 7.45978 6.38268 7.59145 6.09617C7.72313 5.80966 7.91604 5.55011 8.15885 5.33275C8.40167 5.11539 8.68951 4.9446 9.00546 4.83042C9.32141 4.71624 9.6591 4.66096 9.99872 4.66783C10.6651 4.68131 11.2991 4.93293 11.7653 5.36881C12.2314 5.8047 12.4924 6.39021 12.4926 7.00001C12.4928 7.60982 12.232 8.19545 11.7661 8.63155C11.3003 9.06764 10.6663 9.31955 10 9.33333Z" fill="#A8A8A8"/>
</svg>
