<svg width="13" height="16" viewBox="0 0 13 16" fill="none" xmlns="http://www.w3.org/2000/svg">
<path d="M2 0H13V16H2C1.72396 16 1.46615 15.9479 1.22656 15.8438C0.986979 15.7396 0.773438 15.5964 0.585938 15.4141C0.398438 15.2318 0.255208 15.0208 0.15625 14.7812C0.0572917 14.5417 0.00520833 14.2812 0 14V2C0 1.72396 0.0520833 1.46615 0.15625 1.22656C0.260417 0.986979 0.403646 0.773438 0.585938 0.585938C0.768229 0.398438 0.979167 0.255208 1.21875 0.15625C1.45833 0.0572917 1.71875 0.00520833 2 0ZM12 15V13H2C1.85938 13 1.72917 13.026 1.60938 13.0781C1.48958 13.1302 1.38542 13.2005 1.29688 13.2891C1.20833 13.3776 1.13542 13.4844 1.07812 13.6094C1.02083 13.7344 0.994792 13.8646 1 14C1 14.1406 1.02604 14.2708 1.07812 14.3906C1.13021 14.5104 1.20052 14.6146 1.28906 14.7031C1.3776 14.7917 1.48438 14.8646 1.60938 14.9219C1.73438 14.9792 1.86458 15.0052 2 15H12ZM12 12V1H2C1.85938 1 1.72917 1.02604 1.60938 1.07812C1.48958 1.13021 1.38542 1.20052 1.29688 1.28906C1.20833 1.3776 1.13542 1.48438 1.07812 1.60938C1.02083 1.73438 0.994792 1.86458 1 2V12.2656C1.3125 12.0885 1.64583 12 2 12H12ZM6 10V5H7V10H6ZM6 4V3H7V4H6Z" fill="#0F66EF"/>
</svg>
