<svg width="13" height="13" viewBox="0 0 13 13" fill="none" xmlns="http://www.w3.org/2000/svg">
<path d="M1.23576 13C0.88349 13 0.589588 12.8822 0.354059 12.6467C0.118529 12.4112 0.000509804 12.117 0 11.7642V0.382358C0 0.27377 0.0367059 0.183025 0.110118 0.110123C0.183529 0.037221 0.274529 0.000515041 0.383117 5.2377e-06C0.491706 -0.000504566 0.582451 0.0362013 0.655353 0.110123C0.728254 0.184044 0.764706 0.274789 0.764706 0.382358V11.765C0.764706 11.8823 0.813647 11.9901 0.911529 12.0885C1.00941 12.1869 1.11723 12.2358 1.235 12.2353H12.6176C12.7262 12.2353 12.817 12.272 12.8899 12.3454C12.9628 12.4188 12.9995 12.5098 13 12.6184C13.0005 12.727 12.9638 12.8177 12.8899 12.8906C12.816 12.9635 12.7252 13 12.6176 13H1.23576ZM3.52988 10.3235C3.37133 10.3235 3.23853 10.27 3.13147 10.1629C3.02441 10.0559 2.97088 9.92333 2.97088 9.7653V5.2933C2.97088 5.13526 3.02441 5.00271 3.13147 4.89565C3.23853 4.78859 3.37108 4.73506 3.52912 4.73506H3.88241C4.05727 4.73506 4.2041 4.79445 4.32288 4.91324C4.44115 5.03253 4.50029 5.18038 4.50029 5.35677V9.70718C4.50029 9.88357 4.4409 10.0301 4.32212 10.1469C4.20384 10.2641 4.05727 10.3228 3.88241 10.3228L3.52988 10.3235ZM6.97106 10.3235C6.81251 10.3235 6.6797 10.27 6.57264 10.1629C6.46559 10.0559 6.41206 9.92333 6.41206 9.7653V1.52942C6.41206 1.35455 6.47119 1.20799 6.58947 1.08971C6.70774 0.971436 6.85431 0.912044 7.02917 0.911534H7.38247C7.54051 0.911534 7.67306 0.965064 7.78011 1.07212C7.88717 1.17918 7.9407 1.31198 7.9407 1.47053V9.70641C7.9407 9.88128 7.88182 10.0278 7.76406 10.1461C7.64527 10.2644 7.49845 10.3235 7.32358 10.3235H6.97106ZM10.4122 10.3235C10.2537 10.3235 10.1209 10.27 10.0138 10.1629C9.90676 10.0559 9.85323 9.92333 9.85323 9.7653V8.41177C9.85323 8.2369 9.91237 8.09033 10.0306 7.97206C10.1489 7.85379 10.2955 7.79439 10.4703 7.79388H10.8236C10.9817 7.79388 11.1142 7.84741 11.2213 7.95447C11.3283 8.06153 11.3819 8.19434 11.3819 8.35288V9.70641C11.3819 9.88128 11.323 10.0278 11.2052 10.1461C11.0875 10.2644 10.9406 10.3235 10.7648 10.3235H10.4122Z" fill="#0F66EF"/>
</svg>
