<svg width="32" height="37" viewBox="0 0 32 37" fill="none" xmlns="http://www.w3.org/2000/svg">
<path d="M3.841 3.95685e-05C2.4058 3.95685e-05 1.1385 1.00744 0.874 2.45644C0.5336 4.33784 0 7.68664 0 10.35C0 13.1813 1.4628 15.6699 3.6685 17.1028C4.2918 17.5099 4.6 18.0343 4.6 18.4828V19.4258C4.6 19.4672 4.5977 19.5086 4.5931 19.55C4.531 20.148 4.2458 22.8367 3.9767 25.6013C3.7122 28.3268 3.45 31.2363 3.45 32.2C3.45 33.42 3.93464 34.5901 4.79731 35.4527C5.65998 36.3154 6.83 36.8 8.05 36.8C9.27 36.8 10.44 36.3154 11.3027 35.4527C12.1654 34.5901 12.65 33.42 12.65 32.2C12.65 31.234 12.3878 28.3268 12.1233 25.6013C11.9267 23.5841 11.7212 21.5678 11.5069 19.5523L11.5 19.4258V18.4828C11.5 18.032 11.8082 17.5076 12.4315 17.1028C13.5575 16.3723 14.4829 15.3718 15.1236 14.1925C15.7643 13.0131 16.0999 11.6922 16.1 10.35C16.1 7.68664 15.5664 4.33784 15.226 2.45644C15.0981 1.76401 14.7309 1.13857 14.1885 0.689526C13.6461 0.240484 12.9631 -0.00357446 12.259 3.95685e-05C11.477 3.95685e-05 10.764 0.29214 10.2258 0.77284C9.61082 0.272984 8.8425 9.20661e-05 8.05 3.95685e-05C7.2243 3.95685e-05 6.4676 0.28984 5.8742 0.77284C5.31576 0.273501 4.59013 -0.00174318 3.841 3.95685e-05ZM6.9 3.45004C6.9 3.14504 7.02116 2.85253 7.23683 2.63687C7.45249 2.4212 7.745 2.30004 8.05 2.30004C8.355 2.30004 8.64751 2.4212 8.86317 2.63687C9.07884 2.85253 9.2 3.14504 9.2 3.45004V10.35C9.2 10.655 9.32116 10.9475 9.53683 11.1632C9.75249 11.3789 10.045 11.5 10.35 11.5C10.655 11.5 10.9475 11.3789 11.1632 11.1632C11.3788 10.9475 11.5 10.655 11.5 10.35V3.05904C11.5 2.95937 11.5196 2.86067 11.5578 2.76858C11.5959 2.6765 11.6518 2.59282 11.7223 2.52235C11.7928 2.45187 11.8765 2.39596 11.9685 2.35782C12.0606 2.31967 12.1593 2.30004 12.259 2.30004C12.6201 2.30004 12.903 2.54844 12.9628 2.86814C13.3009 4.73804 13.8 7.90974 13.8 10.35C13.8001 11.3092 13.5603 12.2532 13.1023 13.096C12.6444 13.9388 11.9828 14.6536 11.178 15.1754C10.1683 15.8309 9.2 16.9832 9.2 18.4828V19.4258C9.2 19.5485 9.20613 19.6712 9.2184 19.7938C9.2828 20.3872 9.5657 23.069 9.8348 25.8244C10.1062 28.6189 10.35 31.3789 10.35 32.2C10.35 32.81 10.1077 33.3951 9.67634 33.8264C9.24501 34.2577 8.66 34.5 8.05 34.5C7.44 34.5 6.85499 34.2577 6.42365 33.8264C5.99232 33.3951 5.75 32.81 5.75 32.2C5.75 31.3789 5.9938 28.6189 6.2652 25.8244C6.5343 23.069 6.8172 20.3872 6.8816 19.7938C6.89387 19.6712 6.9 19.5485 6.9 19.4258V18.4828C6.9 16.9832 5.9317 15.8309 4.922 15.1754C4.11716 14.6536 3.45565 13.9388 2.99769 13.096C2.53973 12.2532 2.29989 11.3092 2.3 10.35C2.3 7.91204 2.7991 4.73804 3.1372 2.86814C3.1687 2.70524 3.25692 2.55877 3.3862 2.45476C3.51547 2.35075 3.67743 2.29593 3.8433 2.30004C4.0442 2.30065 4.23666 2.38088 4.37851 2.52316C4.52035 2.66543 4.6 2.85814 4.6 3.05904V10.35C4.6 10.655 4.72116 10.9475 4.93683 11.1632C5.15249 11.3789 5.445 11.5 5.75 11.5C6.055 11.5 6.34751 11.3789 6.56317 11.1632C6.77884 10.9475 6.9 10.655 6.9 10.35V3.45004ZM18.4 10.35C18.4 7.60505 19.4904 4.97249 21.4314 3.03148C23.3724 1.09048 26.005 3.95685e-05 28.75 3.95685e-05C29.055 3.95685e-05 29.3475 0.1212 29.5632 0.336867C29.7788 0.552534 29.9 0.845041 29.9 1.15004V17.1994L29.946 17.7146C30.1253 19.7812 30.3001 21.8481 30.4704 23.9154C30.7556 27.3815 31.05 31.1857 31.05 32.2C31.05 33.42 30.5654 34.5901 29.7027 35.4527C28.84 36.3154 27.67 36.8 26.45 36.8C25.23 36.8 24.06 36.3154 23.1973 35.4527C22.3346 34.5901 21.85 33.42 21.85 32.2C21.85 31.188 22.1444 27.3815 22.4296 23.9154C22.5722 22.1651 22.7171 20.4723 22.8252 19.2188L22.8942 18.4H21.85C20.935 18.4 20.0575 18.0366 19.4105 17.3896C18.7635 16.7426 18.4 15.865 18.4 14.95V10.35ZM25.2954 17.3512L25.2471 17.9147L25.116 19.4166C25.0079 20.6678 24.863 22.356 24.7204 24.104C24.4306 27.6391 24.15 31.3076 24.15 32.2C24.15 32.81 24.3923 33.3951 24.8237 33.8264C25.255 34.2577 25.84 34.5 26.45 34.5C27.06 34.5 27.645 34.2577 28.0763 33.8264C28.5077 33.3951 28.75 32.81 28.75 32.2C28.75 31.3076 28.4694 27.6391 28.1796 24.104C28.009 22.0405 27.8334 19.9774 27.6529 17.9147L27.6046 17.3535V17.3512L27.6 17.25V2.38054C25.6838 2.65713 23.9314 3.61507 22.6641 5.07879C21.3968 6.54251 20.6995 8.41394 20.7 10.35V14.95C20.7 15.255 20.8212 15.5475 21.0368 15.7632C21.2525 15.9789 21.545 16.1 21.85 16.1H24.15C24.3095 16.1001 24.4673 16.1333 24.6133 16.1976C24.7593 16.2619 24.8904 16.3558 24.9981 16.4735C25.1058 16.5912 25.1879 16.73 25.2391 16.8811C25.2903 17.0322 25.3094 17.1923 25.2954 17.3512Z" fill="#1D4ED8"/>
</svg>
