<svg width="7" height="13" viewBox="0 0 7 13" fill="none" xmlns="http://www.w3.org/2000/svg">
<path d="M5.14225 6.33334L0.242248 1.43334C0.0755813 1.26667 -0.00508527 1.06934 0.000248062 0.841335C0.0055814 0.613335 0.0918036 0.416224 0.258915 0.250002C0.426026 0.0837795 0.623359 0.000446213 0.850915 1.76835e-06C1.07847 -0.000442676 1.27558 0.0828907 1.44225 0.250002L6.55892 5.38334C6.69225 5.51667 6.79225 5.66667 6.85891 5.83334C6.92558 6 6.95892 6.16667 6.95892 6.33334C6.95892 6.5 6.92558 6.66667 6.85891 6.83334C6.79225 7 6.69225 7.15 6.55892 7.28334L1.42558 12.4167C1.25891 12.5833 1.06447 12.664 0.842248 12.6587C0.620026 12.6533 0.425581 12.5671 0.258915 12.4C0.0922481 12.2329 0.00891474 12.0356 0.00891474 11.808C0.00891474 11.5804 0.0922481 11.3833 0.258915 11.2167L5.14225 6.33334Z" fill="#0F66EF"/>
</svg>
