<svg width="30" height="32" viewBox="0 0 30 32" fill="none" xmlns="http://www.w3.org/2000/svg">
<path opacity="0.987" fill-rule="evenodd" clip-rule="evenodd" d="M13.2309 0.134879C14.8405 -0.0449597 15.793 -0.0449597 17.5226 0.134879C20.5842 0.588017 23.4222 2.00317 25.6265 4.1757C24.137 5.58362 22.667 7.01211 21.2171 8.46074C18.4403 6.1073 15.3408 5.56408 11.9187 6.83109C9.40836 7.98561 7.6603 9.85653 6.67451 12.4438C5.0636 11.2445 3.47367 10.0173 1.90544 8.76269C1.79645 8.70533 1.67198 8.68432 1.5502 8.70275C4.04131 3.89965 7.93413 1.04295 13.2287 0.132659" fill="#F44336"/>
<path opacity="0.997" fill-rule="evenodd" clip-rule="evenodd" d="M1.54585 8.70276C1.67166 8.68352 1.79081 8.7035 1.9033 8.7627C3.47153 10.0173 5.06146 11.2445 6.67237 12.4438C6.41888 13.452 6.25908 14.4813 6.19502 15.5189C6.24979 16.5224 6.40891 17.5075 6.67237 18.474L1.66574 22.4593C-0.514536 17.9034 -0.5545 13.3179 1.54585 8.70276Z" fill="#FFC107"/>
<path opacity="0.999" fill-rule="evenodd" clip-rule="evenodd" d="M25.3889 27.2861C23.8299 25.9113 22.1979 24.6216 20.4999 23.4229C22.2021 22.221 23.2352 20.5721 23.5993 18.4762H15.2579V12.6836C20.0684 12.6436 24.8767 12.6844 29.6828 12.8057C30.5946 17.7568 29.5414 22.221 26.5234 26.1981C26.1645 26.5796 25.7844 26.9427 25.3889 27.2861Z" fill="#448AFF"/>
<path opacity="0.993" fill-rule="evenodd" clip-rule="evenodd" d="M6.67244 18.4762C8.49303 23.001 11.8308 25.1132 16.6857 24.8127C18.0486 24.6549 19.3552 24.1788 20.5001 23.4228C22.1993 24.6247 23.829 25.9125 25.389 27.286C22.9171 29.5073 19.7654 30.8252 16.4481 31.0249C15.6945 31.0852 14.9372 31.0852 14.1835 31.0249C8.53226 30.3588 4.35969 27.5036 1.6658 22.4593L6.67244 18.4762Z" fill="#43A047"/>
</svg>
