<svg width="30" height="32" viewBox="0 0 30 32" fill="none" xmlns="http://www.w3.org/2000/svg">
<path d="M13.3333 24.3334V17.6667H6.66663V14.3334H13.3333V7.66669H16.6666V14.3334H23.3333V17.6667H16.6666V24.3334H13.3333Z" fill="#00BCEA"/>
<path fill-rule="evenodd" clip-rule="evenodd" d="M3.33333 0C2.44928 0 1.60143 0.351189 0.976311 0.976311C0.351189 1.60143 0 2.44928 0 3.33333V28.3333C0 29.2174 0.351189 30.0652 0.976311 30.6904C1.60143 31.3155 2.44928 31.6667 3.33333 31.6667H26.6667C27.5507 31.6667 28.3986 31.3155 29.0237 30.6904C29.6488 30.0652 30 29.2174 30 28.3333V3.33333C30 2.44928 29.6488 1.60143 29.0237 0.976311C28.3986 0.351189 27.5507 0 26.6667 0H3.33333ZM3.33333 3.33333H26.6667V28.3333H3.33333V3.33333Z" fill="#00BCEA"/>
</svg>
