<svg width="13" height="14" viewBox="0 0 13 14" fill="none" xmlns="http://www.w3.org/2000/svg">
<path d="M1.47727 13.2955C1.07102 13.2955 0.723371 13.1509 0.434318 12.8619C0.145265 12.5728 0.000492424 12.2249 0 11.8182V1.47727C0 1.07102 0.144773 0.723371 0.434318 0.434318C0.723864 0.145265 1.07152 0.000492424 1.47727 0H5.90909C6.11837 0 6.29392 0.0709092 6.43574 0.212727C6.57756 0.354546 6.64822 0.529849 6.64773 0.738636C6.64723 0.947424 6.57633 1.12297 6.435 1.26528C6.29367 1.40759 6.11837 1.47826 5.90909 1.47727H1.47727V11.8182H5.90909C6.11837 11.8182 6.29392 11.8891 6.43574 12.0309C6.57756 12.1727 6.64822 12.348 6.64773 12.5568C6.64723 12.7656 6.57633 12.9412 6.435 13.0835C6.29367 13.2258 6.11837 13.2964 5.90909 13.2955H1.47727ZM10.4702 7.38636H5.17045C4.96117 7.38636 4.78587 7.31545 4.64455 7.17364C4.50322 7.03182 4.43231 6.85652 4.43182 6.64773C4.43133 6.43894 4.50223 6.26364 4.64455 6.12182C4.78686 5.98 4.96216 5.90909 5.17045 5.90909H10.4702L9.08523 4.52415C8.94981 4.38873 8.8821 4.22254 8.8821 4.02557C8.8821 3.8286 8.94981 3.65625 9.08523 3.50852C9.22064 3.3608 9.39299 3.28373 9.60227 3.27733C9.81155 3.27093 9.99006 3.34184 10.1378 3.49006L12.7784 6.13068C12.9261 6.27841 13 6.45076 13 6.64773C13 6.8447 12.9261 7.01705 12.7784 7.16477L10.1378 9.8054C9.99006 9.95312 9.81475 10.024 9.61188 10.0181C9.409 10.0122 9.23345 9.93515 9.08523 9.78693C8.94981 9.6392 8.8853 9.4639 8.8917 9.26102C8.89811 9.05814 8.96877 8.88875 9.10369 8.75284L10.4702 7.38636Z" fill="#FF3700"/>
</svg>
