<svg width="14" height="16" viewBox="0 0 14 16" fill="none" xmlns="http://www.w3.org/2000/svg">
<path d="M1.93343 5.15815V8.41396L0.600098 10.3674V12.3209H12.6001V10.3674L11.2668 8.41396V5.15815C11.2668 4.55956 11.1461 3.96684 10.9115 3.41382C10.677 2.8608 10.3333 2.35832 9.89993 1.93505C9.46659 1.51179 8.95214 1.17604 8.38595 0.946974C7.81977 0.717906 7.21293 0.600006 6.6001 0.600006C5.98726 0.600006 5.38043 0.717906 4.81424 0.946974C4.24806 1.17604 3.73361 1.51179 3.30027 1.93505C2.86693 2.35832 2.52318 2.8608 2.28866 3.41382C2.05414 3.96684 1.93343 4.55956 1.93343 5.15815ZM4.26676 12.3209H8.93343C8.93343 12.6202 8.87308 12.9166 8.75582 13.1931C8.63856 13.4696 8.46668 13.7209 8.25001 13.9325C8.03334 14.1441 7.77612 14.312 7.49303 14.4265C7.20993 14.5411 6.90652 14.6 6.6001 14.6C6.29368 14.6 5.99026 14.5411 5.70717 14.4265C5.42408 14.312 5.16685 14.1441 4.95018 13.9325C4.73351 13.7209 4.56164 13.4696 4.44438 13.1931C4.32712 12.9166 4.26676 12.6202 4.26676 12.3209Z" stroke="#0F66EF" stroke-width="1.2" stroke-linecap="square"/>
</svg>
