<svg width="40" height="40" viewBox="0 0 40 40" fill="none" xmlns="http://www.w3.org/2000/svg">
<path d="M27.7544 10.5069L8.04711 15.7908C6.75351 16.1376 5.986 17.4674 6.33284 18.761L9.30712 29.8542C9.65395 31.1478 10.9838 31.9153 12.2774 31.5685L31.9847 26.2846C33.2783 25.9378 34.0458 24.608 33.6989 23.3144L30.7247 12.2212C30.3778 10.9276 29.048 10.1601 27.7544 10.5069Z" stroke="#14B8A6" stroke-width="1.5" stroke-linecap="round" stroke-linejoin="round"/>
<path d="M12.5833 12.6667C12.2516 11.425 12.9791 10.1667 14.2166 9.83335L19.6916 8.36669C20.925 8.03502 22.1916 8.76585 22.5166 10.0084" stroke="#14B8A6" stroke-width="1.5" stroke-linecap="round" stroke-linejoin="round"/>
<path d="M14.1015 19.3439L10.4207 20.3308C10.1322 20.4081 9.96102 20.7047 10.0384 20.9932L10.7186 23.5303C10.796 23.8188 11.0925 23.9899 11.381 23.9126L15.0619 22.9257C15.3504 22.8483 15.5216 22.5518 15.4442 22.2633L14.764 19.7262C14.6866 19.4377 14.39 19.2665 14.1015 19.3439Z" stroke="#14B8A6" stroke-linecap="round" stroke-linejoin="round"/>
<path d="M12.25 26.1666L28.9167 21.6917" stroke="#14B8A6" stroke-linecap="round" stroke-linejoin="round"/>
<path d="M20 37.9166C29.8951 37.9166 37.9167 29.8951 37.9167 20C37.9167 10.1049 29.8951 2.08331 20 2.08331C10.1049 2.08331 2.08337 10.1049 2.08337 20C2.08337 29.8951 10.1049 37.9166 20 37.9166Z" stroke="#14B8A6" stroke-width="2" stroke-linecap="round" stroke-linejoin="round"/>
</svg>
