<svg width="25" height="21" viewBox="0 0 25 21" fill="none" xmlns="http://www.w3.org/2000/svg">
<path fill-rule="evenodd" clip-rule="evenodd" d="M19.2593 7.8788C19.9558 7.8788 20.6238 7.60211 21.1163 7.10959C21.6089 6.61707 21.8856 5.94906 21.8856 5.25253C21.8856 4.55601 21.6089 3.888 21.1163 3.39548C20.6238 2.90296 19.9558 2.62627 19.2593 2.62627C18.5628 2.62627 17.8948 2.90296 17.4022 3.39548C16.9097 3.888 16.633 4.55601 16.633 5.25253C16.633 5.94906 16.9097 6.61707 17.4022 7.10959C17.8948 7.60211 18.5628 7.8788 19.2593 7.8788ZM19.2593 10.5051C20.2417 10.505 21.2043 10.2294 22.0379 9.70962C22.8716 9.18984 23.5427 8.4467 23.9751 7.56462C24.4075 6.68253 24.5839 5.69685 24.4842 4.71954C24.3846 3.74223 24.0128 2.81246 23.4112 2.03585C22.8096 1.25923 22.0022 0.6669 21.0808 0.326132C20.1594 -0.0146353 19.161 -0.0901801 18.1988 0.108079C17.2366 0.306338 16.3493 0.770455 15.6377 1.44771C14.9261 2.12497 14.4187 2.98821 14.1731 3.9394H1.31313C0.964869 3.9394 0.630868 4.07775 0.384608 4.32401C0.138348 4.57027 3.02737e-07 4.90427 3.02737e-07 5.25253C3.02737e-07 5.6008 0.138348 5.9348 0.384608 6.18106C0.630868 6.42732 0.964869 6.56567 1.31313 6.56567H14.1731C14.4642 7.69323 15.1218 8.69207 16.0425 9.40517C16.9632 10.1183 18.0947 10.5052 19.2593 10.5051ZM7.8788 15.7576C7.8788 16.4541 7.6021 17.1221 7.10958 17.6147C6.61706 18.1072 5.94906 18.3839 5.25253 18.3839C4.556 18.3839 3.888 18.1072 3.39548 17.6147C2.90296 17.1221 2.62627 16.4541 2.62627 15.7576C2.62627 15.0611 2.90296 14.3931 3.39548 13.9006C3.888 13.408 4.556 13.1313 5.25253 13.1313C5.94906 13.1313 6.61706 13.408 7.10958 13.9006C7.6021 14.3931 7.8788 15.0611 7.8788 15.7576ZM10.3387 17.0707C10.0167 18.3063 9.25588 19.3823 8.19832 20.0977C7.14076 20.8131 5.85888 21.119 4.59224 20.9581C3.3256 20.7972 2.16088 20.1806 1.31574 19.2236C0.470609 18.2665 0.00289178 17.0344 3.02737e-07 15.7576C-0.000433629 14.4789 0.465632 13.2439 1.3108 12.2842C2.15596 11.3246 3.32217 10.7063 4.59072 10.5451C5.85927 10.384 7.14303 10.6912 8.20126 11.4091C9.25948 12.127 10.0195 13.2062 10.3387 14.4445H23.1987C23.547 14.4445 23.881 14.5828 24.1272 14.8291C24.3735 15.0753 24.5118 15.4093 24.5118 15.7576C24.5118 16.1059 24.3735 16.4399 24.1272 16.6861C23.881 16.9324 23.547 17.0707 23.1987 17.0707H10.3387Z" fill="#0F66EF"/>
</svg>
