<svg width="22" height="22" viewBox="0 0 22 22" fill="none" xmlns="http://www.w3.org/2000/svg">
<g clip-path="url(#clip0_517_2381)">
<path d="M17.3289 1.375H12.0467C11.8825 1.37488 11.7249 1.43976 11.6084 1.55547L1.04844 12.1129C0.817273 12.3452 0.6875 12.6596 0.6875 12.9873C0.6875 13.315 0.817273 13.6294 1.04844 13.8617L6.07578 18.8891C6.30816 19.1203 6.62262 19.25 6.95041 19.25C7.27821 19.25 7.59267 19.1203 7.82504 18.8891L18.382 8.33594C18.4977 8.21943 18.5626 8.06186 18.5625 7.89766V2.6125C18.5633 2.45009 18.532 2.28913 18.4703 2.13889C18.4086 1.98864 18.3178 1.85208 18.2032 1.73706C18.0885 1.62204 17.9522 1.53083 17.8022 1.4687C17.6521 1.40656 17.4913 1.37472 17.3289 1.375Z" stroke="#A8A8A8" stroke-width="2.0625" stroke-linecap="round" stroke-linejoin="round"/>
<path d="M15.125 6.1875C14.8531 6.1875 14.5872 6.10686 14.3611 5.95577C14.135 5.80468 13.9587 5.58994 13.8547 5.33869C13.7506 5.08744 13.7234 4.81098 13.7764 4.54425C13.8295 4.27753 13.9604 4.03253 14.1527 3.84023C14.345 3.64793 14.59 3.51698 14.8568 3.46392C15.1235 3.41087 15.3999 3.4381 15.6512 3.54217C15.9024 3.64624 16.1172 3.82247 16.2683 4.04859C16.4194 4.27471 16.5 4.54055 16.5 4.8125C16.5 5.17717 16.3551 5.52691 16.0973 5.78477C15.8394 6.04263 15.4897 6.1875 15.125 6.1875Z" fill="#A8A8A8"/>
<path d="M9.88281 20.625L21.1406 9.36719C21.1966 9.31075 21.2407 9.24362 21.2702 9.1698C21.2997 9.09599 21.3141 9.01699 21.3125 8.9375V3.4375" stroke="#A8A8A8" stroke-width="1.375" stroke-linecap="round" stroke-linejoin="round"/>
</g>
<defs>
<clipPath id="clip0_517_2381">
<rect width="22" height="22" fill="white"/>
</clipPath>
</defs>
</svg>
