<svg width="28" height="28" viewBox="0 0 28 28" fill="none" xmlns="http://www.w3.org/2000/svg">
<path d="M4.66666 20.9999C4.66666 19.7622 5.15833 18.5753 6.0335 17.7001C6.90867 16.8249 8.09565 16.3333 9.33333 16.3333H18.6667C19.9043 16.3333 21.0913 16.8249 21.9665 17.7001C22.8417 18.5753 23.3333 19.7622 23.3333 20.9999C23.3333 21.6188 23.0875 22.2122 22.6499 22.6498C22.2123 23.0874 21.6188 23.3333 21 23.3333H7C6.38116 23.3333 5.78767 23.0874 5.35008 22.6498C4.9125 22.2122 4.66666 21.6188 4.66666 20.9999Z" stroke="#0F66EF" stroke-width="2" stroke-linejoin="round"/>
<path d="M14 11.6666C15.933 11.6666 17.5 10.0996 17.5 8.16663C17.5 6.23363 15.933 4.66663 14 4.66663C12.067 4.66663 10.5 6.23363 10.5 8.16663C10.5 10.0996 12.067 11.6666 14 11.6666Z" stroke="#0F66EF" stroke-width="2"/>
</svg>
