<svg width="15" height="16" viewBox="0 0 15 16" fill="none" xmlns="http://www.w3.org/2000/svg">
<path fill-rule="evenodd" clip-rule="evenodd" d="M14.695 1.7957C12.3867 -0.730155 4.1444 -0.387219 0.504664 1.55828C0.448693 1.58714 0.40648 1.63706 0.387309 1.69704C0.368139 1.75702 0.373583 1.82217 0.402443 1.87814C0.431303 1.93411 0.481215 1.97632 0.541199 1.99549C0.601183 2.01466 0.666326 2.00922 0.722297 1.98036C4.31653 0.140375 12.1961 0.0480466 14.168 2.27054C14.5242 2.67942 13.9042 8.20465 13.5613 9.68191C13.2184 11.1592 10.2638 13.7708 8.79976 14.6479C7.8369 15.2282 7.72479 15.2085 6.78171 14.6479C4.98855 13.5531 1.61921 10.4403 1.50709 9.66872C1.50709 9.55661 0.300221 3.33166 0.412335 2.8898C0.416569 2.84025 0.403166 2.79079 0.374491 2.75016C0.345817 2.70952 0.303712 2.68032 0.255606 2.6677C0.2075 2.65508 0.156484 2.65986 0.111556 2.68119C0.066629 2.70252 0.0306776 2.73903 0.0100447 2.78428C-0.115259 3.34485 0.972904 9.47813 0.986094 9.69576C1.07183 10.902 6.26137 15.8409 7.81778 15.8277C9.37418 15.8145 13.8647 11.9301 14.3395 9.89295C14.5703 8.82457 15.46 2.63919 14.695 1.7957Z" fill="#0F66EF"/>
<path fill-rule="evenodd" clip-rule="evenodd" d="M6.92756 7.96796C7.87722 8.52194 9.51936 7.64481 9.01155 6.60281C8.99986 6.5738 8.98257 6.54737 8.96066 6.52504C8.93876 6.50271 8.91267 6.48492 8.88389 6.47267C8.85511 6.46042 8.82419 6.45396 8.79291 6.45366C8.76163 6.45336 8.7306 6.45922 8.70159 6.47091C8.67258 6.48261 8.64615 6.4999 8.62382 6.5218C8.60149 6.54371 8.58369 6.5698 8.57145 6.59858C8.5592 6.62736 8.55274 6.65827 8.55244 6.68955C8.55214 6.72083 8.558 6.75186 8.56969 6.78088C8.74116 7.29528 7.74533 7.60524 7.36282 7.31507C7.24395 7.19209 7.17751 7.02775 7.17751 6.85672C7.17751 6.68569 7.24395 6.52134 7.36282 6.39837C7.51912 6.28652 7.7027 6.21892 7.89421 6.20267C8.08572 6.18642 8.27807 6.22213 8.45098 6.30604C8.4972 6.31587 8.54538 6.3099 8.58781 6.28909C8.63023 6.26828 8.66444 6.23384 8.68497 6.19127C8.70549 6.14871 8.71113 6.10049 8.70099 6.05434C8.69085 6.00818 8.66552 5.96677 8.62905 5.93673C6.78247 4.88813 5.62836 7.09743 6.92756 7.96796Z" fill="#0F66EF"/>
<path fill-rule="evenodd" clip-rule="evenodd" d="M4.28264 9.0291C4.36178 9.1544 4.7245 9.68859 4.78385 9.76113C4.88914 9.84322 5.01505 9.89466 5.1477 9.90979C5.28035 9.92492 5.4146 9.90314 5.53567 9.84687C5.76627 9.7389 5.98695 9.61091 6.19516 9.46436C6.31299 9.53031 6.4339 9.58967 6.55789 9.64243C6.55789 10.1634 6.44577 10.7306 6.86785 10.9614C7.18642 11.0948 7.53316 11.1469 7.87687 11.1131C8.03515 11.1131 8.68805 11.0405 8.76059 11.0208C8.87349 10.9784 8.97351 10.9076 9.05094 10.8151C9.12836 10.7227 9.18056 10.6118 9.20245 10.4932C9.24861 10.205 9.24861 9.91084 9.20245 9.62264C9.29478 9.57648 9.34094 9.55669 9.43987 9.49734C9.7162 9.69453 10.0433 9.80862 10.3829 9.82708C11.1018 9.74794 11.3451 8.90379 11.6023 8.46193C11.6439 8.39296 11.6631 8.31278 11.6572 8.23246C11.6513 8.15214 11.6206 8.07562 11.5694 8.01348C10.5603 6.83299 10.6263 7.42653 10.5999 6.83958C10.811 6.6879 11.3385 6.41751 11.4704 6.08776C11.7276 5.42827 11.1143 4.85517 10.8505 4.41331C10.8175 4.35778 10.768 4.31395 10.7089 4.28794C10.6498 4.26193 10.584 4.25503 10.5208 4.26822C10.275 4.32274 10.0332 4.39089 9.79533 4.47266C9.03692 4.72987 9.53154 4.73646 8.9248 4.50564C8.83248 3.95826 8.98416 3.2526 8.17298 3.1273C7.79365 3.11451 7.41395 3.13659 7.03866 3.19325C6.99152 3.19491 6.94603 3.21097 6.9083 3.23927C6.87057 3.26757 6.84241 3.30674 6.82762 3.35153C6.72113 3.7156 6.64828 4.08868 6.60999 4.46607C6.46636 4.51227 6.32918 4.57653 6.20176 4.65732C5.41696 4.13632 5.12679 3.7802 4.44091 4.92771C4.36837 5.05302 4.0716 5.62678 4.05181 5.69932C3.90013 6.23351 4.71131 6.57644 4.98829 6.74132C4.97922 6.90827 4.97922 7.07558 4.98829 7.24253C4.04522 7.71737 3.55719 7.82948 4.28264 9.02976M5.43675 7.71077C5.49228 7.68047 5.53722 7.63389 5.56551 7.5773C5.5938 7.52072 5.6041 7.45683 5.59503 7.39422C5.43675 6.36541 5.91818 6.58963 5.02786 6.1148C4.94213 6.06864 4.64536 5.94333 4.57941 5.82462C4.73744 5.41603 4.96011 5.03549 5.2389 4.69755C5.55546 4.77669 6.04348 5.35704 6.30068 5.1592C6.65681 4.8888 6.99975 4.90199 7.00634 4.66458C7.00036 4.31892 7.0562 3.97497 7.17121 3.64896C8.57593 3.53684 8.29235 3.5896 8.39127 4.7635C8.39669 4.81641 8.41688 4.86673 8.44953 4.90871C8.48219 4.95069 8.52599 4.98264 8.57593 5.00092C9.69047 5.58127 8.92546 5.29109 10.4225 4.94816C10.5544 5.14601 10.9303 5.60765 10.838 5.85826C9.72345 6.60348 9.87513 6.3199 9.87513 7.34871C9.87513 7.69165 10.0928 7.56634 10.7984 8.35114C10.7193 8.51601 10.4687 9.0568 10.284 9.07658C8.96503 8.41709 9.62453 8.68748 8.65507 9.01063C8.19343 9.16231 8.45722 9.74926 8.43744 10.2696C8.24109 10.3405 8.03264 10.3719 7.82411 10.3619C7.66004 10.3849 7.49356 10.3849 7.32949 10.3619V9.43205C7.33136 9.34931 7.30587 9.26827 7.25699 9.20149C7.2081 9.13472 7.13854 9.08594 7.0591 9.06273C6.39961 8.87807 6.31387 8.56152 6.00391 8.76596C5.107 9.34631 5.27847 9.29355 5.14657 9.11549C4.92314 8.84231 4.74501 8.53504 4.61898 8.20539C4.87737 8.01426 5.15086 7.84443 5.43675 7.69758V7.71077Z" fill="#0F66EF"/>
</svg>
