<svg width="15" height="17" viewBox="0 0 15 17" fill="none" xmlns="http://www.w3.org/2000/svg">
<path d="M7.25 9.7937C7.53453 9.7937 7.81628 9.7355 8.07915 9.62243C8.34202 9.50936 8.58087 9.34362 8.78206 9.13469C8.98326 8.92576 9.14285 8.67772 9.25174 8.40474C9.36062 8.13176 9.41667 7.83918 9.41667 7.5437M7.25 9.7937C6.67536 9.7937 6.12426 9.55665 5.71793 9.13469C5.31161 8.71273 5.08333 8.14044 5.08333 7.5437M7.25 9.7937V12.0437M5.08333 7.5437C5.08333 6.94696 5.31161 6.37467 5.71793 5.95271C6.12426 5.53075 6.67536 5.2937 7.25 5.2937C7.53453 5.2937 7.81628 5.3519 8.07915 5.46497C8.34202 5.57805 8.58087 5.74378 8.78206 5.95271C8.98326 6.16164 9.14285 6.40968 9.25174 6.68266C9.36062 6.95565 9.41667 7.24823 9.41667 7.5437M9.41667 7.5437H11.5833M7.25 5.2937V3.0437M5.08333 7.5437H2.91667M4.36111 4.5437L5.80556 6.0437M8.69444 9.0437L10.1389 10.5437M10.1389 4.5437L8.69444 6.0437M5.80556 9.0437L4.36111 10.5437M7.25 15.7937C7.25 15.7937 0.75 12.7937 0.75 7.5437V3.0437L7.25 0.793701L13.75 3.0437V7.5437C13.75 12.7937 7.25 15.7937 7.25 15.7937Z" stroke="#0F66EF" stroke-width="1.5"/>
</svg>
