<svg width="32" height="32" viewBox="0 0 32 32" fill="none" xmlns="http://www.w3.org/2000/svg">
<path d="M23.1802 12.3113V9.02832C27.1609 9.02832 28.6311 10.1828 30.2935 12.3113C30.2935 8.2339 28.9402 4.10379 23.1802 4.10379V0.82077L17.1614 6.56605L23.1802 12.3113Z" stroke="#0F66EF" stroke-width="1.64151" stroke-linejoin="round"/>
<path d="M19.151 13.5051V9.32676C19.151 8.95736 19.0043 8.6031 18.7431 8.3419C18.4819 8.0807 18.1276 7.93396 17.7582 7.93396H3.83027C3.09148 7.93396 2.38296 8.22744 1.86056 8.74984C1.33816 9.27224 1.04468 9.98077 1.04468 10.7196M1.04468 10.7196C1.04468 11.4583 1.33816 12.1669 1.86056 12.6893C2.38296 13.2117 3.09148 13.5051 3.83027 13.5051H20.5438C20.9132 13.5051 21.2675 13.6519 21.5287 13.9131C21.7899 14.1743 21.9366 14.5285 21.9366 14.8979V19.0763M1.04468 10.7196V27.4331C1.04468 28.1719 1.33816 28.8804 1.86056 29.4028C2.38296 29.9252 3.09148 30.2187 3.83027 30.2187H20.5438C20.9132 30.2187 21.2675 30.072 21.5287 29.8108C21.7899 29.5496 21.9366 29.1953 21.9366 28.8259V24.6475" stroke="#0F66EF" stroke-width="2.08919" stroke-linecap="round" stroke-linejoin="round"/>
<path d="M21.9366 16.2907V21.8619H16.3654C15.6266 21.8619 14.9181 21.5684 14.3957 21.046C13.8733 20.5236 13.5798 19.8151 13.5798 19.0763C13.5798 18.3375 13.8733 17.629 14.3957 17.1066C14.9181 16.5842 15.6266 16.2907 16.3654 16.2907H21.9366Z" stroke="#0F66EF" stroke-width="2.08919" stroke-linecap="round" stroke-linejoin="round"/>
</svg>
