<svg width="19" height="20" viewBox="0 0 19 20" fill="none" xmlns="http://www.w3.org/2000/svg">
<path d="M10.7964 1.00973C10.4711 0.875 10.0581 0.875 9.23195 0.875C8.40585 0.875 7.99279 0.875 7.66749 1.00973C7.45226 1.09882 7.2567 1.22946 7.09199 1.39417C6.92727 1.55889 6.79664 1.75445 6.70754 1.96968C6.626 2.16734 6.5932 2.39869 6.58079 2.73463C6.57502 2.97743 6.50776 3.2148 6.38529 3.42454C6.26283 3.63428 6.08917 3.80953 5.88055 3.9339C5.66854 4.05247 5.4299 4.11532 5.18699 4.11656C4.94407 4.1178 4.70481 4.05739 4.49159 3.94099C4.19377 3.78321 3.97838 3.69635 3.76476 3.66798C3.29881 3.60671 2.82759 3.73296 2.45469 4.01899C2.17637 4.23438 1.96896 4.59159 1.5559 5.3069C1.14285 6.02221 0.935438 6.37942 0.890232 6.72954C0.859772 6.9604 0.875093 7.195 0.93532 7.41994C0.995546 7.64487 1.0995 7.85574 1.24124 8.04049C1.37242 8.21068 1.5559 8.35339 1.84043 8.53244C2.25969 8.79569 2.52915 9.2442 2.52915 9.7388C2.52915 10.2334 2.25969 10.6819 1.84043 10.9443C1.5559 11.1242 1.37154 11.2669 1.24124 11.4371C1.0995 11.6219 0.995546 11.8327 0.93532 12.0577C0.875093 12.2826 0.859772 12.5172 0.890232 12.7481C0.936324 13.0973 1.14285 13.4554 1.55502 14.1707C1.96896 14.886 2.17548 15.2432 2.45469 15.4586C2.63945 15.6003 2.85031 15.7043 3.07525 15.7645C3.30019 15.8248 3.53479 15.8401 3.76565 15.8096C3.97838 15.7813 4.19377 15.6944 4.49159 15.5366C4.70481 15.4202 4.94407 15.3598 5.18699 15.361C5.4299 15.3623 5.66854 15.4251 5.88055 15.5437C6.30867 15.7919 6.56306 16.2484 6.58079 16.743C6.5932 17.0798 6.62511 17.3103 6.70754 17.5079C6.79664 17.7231 6.92727 17.9187 7.09199 18.0834C7.2567 18.2481 7.45226 18.3788 7.66749 18.4679C7.99279 18.6026 8.40585 18.6026 9.23195 18.6026C10.0581 18.6026 10.4711 18.6026 10.7964 18.4679C11.0116 18.3788 11.2072 18.2481 11.3719 18.0834C11.5366 17.9187 11.6673 17.7231 11.7564 17.5079C11.8379 17.3103 11.8707 17.0798 11.8831 16.743C11.9008 16.2484 12.1552 15.791 12.5834 15.5437C12.7954 15.4251 13.034 15.3623 13.2769 15.361C13.5198 15.3598 13.7591 15.4202 13.9723 15.5366C14.2701 15.6944 14.4855 15.7813 14.6983 15.8096C14.9291 15.8401 15.1637 15.8248 15.3887 15.7645C15.6136 15.7043 15.8245 15.6003 16.0092 15.4586C16.2884 15.2441 16.495 14.886 16.908 14.1707C17.3211 13.4554 17.5285 13.0982 17.5737 12.7481C17.6041 12.5172 17.5888 12.2826 17.5286 12.0577C17.4684 11.8327 17.3644 11.6219 17.2227 11.4371C17.0915 11.2669 16.908 11.1242 16.6235 10.9452C16.416 10.8188 16.244 10.6418 16.1235 10.4308C16.0031 10.2198 15.9381 9.98172 15.9348 9.7388C15.9348 9.2442 16.2042 8.79569 16.6235 8.53332C16.908 8.35339 17.0924 8.21068 17.2227 8.04049C17.3644 7.85574 17.4684 7.64487 17.5286 7.41994C17.5888 7.195 17.6041 6.9604 17.5737 6.72954C17.5276 6.38031 17.3211 6.02221 16.9089 5.3069C16.495 4.59159 16.2884 4.23438 16.0092 4.01899C15.8245 3.87725 15.6136 3.7733 15.3887 3.71307C15.1637 3.65284 14.9291 3.63752 14.6983 3.66798C14.4855 3.69635 14.2701 3.78321 13.9714 3.94099C13.7583 4.05723 13.5192 4.11755 13.2765 4.11631C13.0337 4.11507 12.7953 4.05231 12.5834 3.9339C12.3747 3.80953 12.2011 3.63428 12.0786 3.42454C11.9562 3.2148 11.8889 2.97743 11.8831 2.73463C11.8707 2.3978 11.8388 2.16734 11.7564 1.96968C11.6673 1.75445 11.5366 1.55889 11.3719 1.39417C11.2072 1.22946 11.0116 1.09882 10.7964 1.00973Z" stroke="#0F66EF" stroke-width="1.75"/>
</svg>
