<svg width="43" height="35" viewBox="0 0 43 35" fill="none" xmlns="http://www.w3.org/2000/svg">
<path d="M7.75 22.167C7.50689 22.167 7.27347 22.2636 7.10156 22.4355C6.92993 22.6073 6.83309 22.8402 6.83301 23.083C6.83301 23.326 6.92976 23.5596 7.10156 23.7314C7.27347 23.9034 7.50689 24 7.75 24C7.99311 24 8.22653 23.9034 8.39844 23.7314C8.57024 23.5596 8.66699 23.326 8.66699 23.083C8.66691 22.8402 8.57007 22.6073 8.39844 22.4355C8.22653 22.2636 7.99311 22.167 7.75 22.167ZM21.167 22.167C20.9239 22.167 20.6905 22.2636 20.5186 22.4355C20.3468 22.6074 20.2501 22.8401 20.25 23.083C20.25 23.3261 20.3466 23.5595 20.5186 23.7314C20.6905 23.9034 20.9239 24 21.167 24C21.4099 23.9999 21.6426 23.9032 21.8145 23.7314C21.9864 23.5595 22.083 23.3261 22.083 23.083C22.0829 22.84 21.9863 22.6074 21.8145 22.4355C21.6426 22.2637 21.41 22.1671 21.167 22.167ZM36.5 22.167C36.2569 22.167 36.0235 22.2636 35.8516 22.4355C35.6799 22.6074 35.5831 22.8402 35.583 23.083C35.583 23.326 35.6798 23.5596 35.8516 23.7314C36.0235 23.9034 36.2569 24 36.5 24C36.7431 24 36.9765 23.9034 37.1484 23.7314C37.3202 23.5596 37.417 23.3261 37.417 23.083C37.4169 22.8402 37.3201 22.6073 37.1484 22.4355C36.9765 22.2636 36.7431 22.167 36.5 22.167ZM6.83301 18.25H16.417V20.3154L19.1299 12.5195L19.1338 12.5088L19.1377 12.4971C19.576 11.3284 20.6666 10.5831 21.9521 10.583H22.083V6.83301H6.83301V18.25ZM21.3789 18.25H36.3066L35.0186 14.5H22.667L21.3789 18.25ZM27.917 10.583H35.7334C36.9894 10.583 38.1173 11.3214 38.5361 12.5176L38.5371 12.5195L41.2773 20.3975L41.333 20.5566V31.2871C41.3328 32.531 40.3076 33.667 38.9912 33.667H37.8223C37.1127 33.6669 36.5245 33.313 36.1367 32.8711C35.7509 32.4313 35.5 31.8369 35.5 31.21V29.833H22.167V31.21C22.167 31.8276 21.9278 32.42 21.5469 32.8633C21.163 33.3099 20.5762 33.667 19.8633 33.667H18.6748C17.3585 33.6669 16.3333 32.5309 16.333 31.2871V29.8467L15.4014 29.833L11.9951 29.7812L8.46191 33.3682L8.16895 33.667H4.83301V30.3359L5.12598 30.043L5.66602 29.502C4.66163 29.1758 3.7372 28.6171 2.97656 27.8564C1.71079 26.5906 1 24.8731 1 23.083V7.75L1.00781 7.41504C1.09063 5.74677 1.78986 4.16326 2.97656 2.97656C4.24243 1.71069 5.95979 1 7.75 1H21.167L21.501 1.00781C23.1693 1.09047 24.7526 1.78991 25.9395 2.97656C27.2053 4.24243 27.917 5.95979 27.917 7.75V10.583Z" stroke="#EC9400" stroke-width="2"/>
</svg>
