<svg width="24" height="24" viewBox="0 0 24 24" fill="none" xmlns="http://www.w3.org/2000/svg">
<path d="M21.2255 14.957V17.9035C21.2256 18.1626 21.1746 18.4193 21.0755 18.6587C20.9763 18.8981 20.831 19.1157 20.6478 19.2989C20.4646 19.4822 20.2471 19.6276 20.0077 19.7268C19.7682 19.826 19.5116 19.877 19.2525 19.877H4.223C3.96386 19.877 3.70726 19.826 3.46785 19.7268C3.22844 19.6276 3.01092 19.4822 2.8277 19.2989C2.64449 19.1157 2.49917 18.8981 2.40004 18.6587C2.30092 18.4193 2.24993 18.1626 2.25 17.9035V6.0965C2.24993 5.83732 2.30094 5.58066 2.40009 5.3412C2.49924 5.10173 2.64461 4.88415 2.82788 4.70088C3.01115 4.51761 3.22873 4.37225 3.4682 4.27309C3.70766 4.17394 3.96432 4.12294 4.2235 4.123H19.2525C19.5116 4.123 19.7682 4.17405 20.0077 4.27323C20.2471 4.37242 20.4646 4.51779 20.6478 4.70106C20.831 4.88432 20.9763 5.10188 21.0755 5.34131C21.1746 5.58075 21.2256 5.83736 21.2255 6.0965V9.1455" stroke="#0F66EF" stroke-width="1.5" stroke-linecap="round" stroke-linejoin="round"/>
<path d="M21.147 14.9625H15.9625C15.5802 14.9626 15.2016 14.8874 14.8484 14.7412C14.4951 14.5949 14.1742 14.3805 13.9038 14.1102C13.6335 13.8398 13.4191 13.5189 13.2728 13.1656C13.1266 12.8124 13.0514 12.4338 13.0515 12.0515C13.0513 11.6691 13.1265 11.2905 13.2727 10.9372C13.4189 10.5839 13.6333 10.2629 13.9037 9.99249C14.174 9.7221 14.495 9.50764 14.8483 9.36137C15.2015 9.21509 15.5802 9.13987 15.9625 9.14H21.1475C21.48 9.14 21.75 9.41 21.75 9.743V14.36C21.75 14.6925 21.48 14.9625 21.147 14.9625Z" stroke="#0F66EF" stroke-linecap="round" stroke-linejoin="round"/>
<path d="M16.229 13.438C16.9759 13.438 17.5815 12.8325 17.5815 12.0855C17.5815 11.3385 16.9759 10.733 16.229 10.733C15.482 10.733 14.8765 11.3385 14.8765 12.0855C14.8765 12.8325 15.482 13.438 16.229 13.438Z" stroke="#0F66EF" stroke-width="0.5" stroke-linecap="round" stroke-linejoin="round"/>
</svg>
